<svg xmlns="http://www.w3.org/2000/svg" width="1200" height="630" viewBox="0 0 1200 630" role="img" aria-labelledby="t d"><title id="t">Hacoo product route map</title><desc id="d">An original editorial graphic showing the path from requirements to an independent index and a live destination.</desc><rect width="1200" height="630" fill="#edf7f1"/><path d="M0 0h1200v18H0z" fill="#13795b"/><text x="72" y="94" font-family="Arial,sans-serif" font-size="24" font-weight="700" fill="#13795b">HACOOVIP · ROUTE MAP</text><text x="72" y="184" font-family="Arial,sans-serif" font-size="62" font-weight="800" fill="#14362b">Keep the product trail</text><text x="72" y="232" font-family="Arial,sans-serif" font-size="28" fill="#41685b">Define, compare and recheck before you rely on a route</text><g font-family="Arial,sans-serif"><rect x="72" y="326" width="270" height="150" rx="12" fill="#14362b"/><rect x="465" y="326" width="270" height="150" rx="12" fill="#13795b"/><rect x="858" y="326" width="270" height="150" rx="12" fill="#d79a22"/><path d="M342 401h123M735 401h123" stroke="#14362b" stroke-width="7"/><path d="m445 382 20 19-20 19m393-38 20 19-20 19" fill="none" stroke="#14362b" stroke-width="7"/><g fill="#fff"><text x="105" y="378" font-size="20">01 · DEFINE</text><text x="105" y="426" font-size="30" font-weight="700">Requirements</text><text x="498" y="378" font-size="20">02 · INDEX</text><text x="498" y="426" font-size="30" font-weight="700">Visual route</text><text x="891" y="378" font-size="20">03 · VERIFY</text><text x="891" y="426" font-size="30" font-weight="700">Live listing</text></g></g><text x="72" y="570" font-family="Arial,sans-serif" font-size="20" fill="#41685b">Independent editorial graphic · hacoovip.store</text></svg>
