<svg xmlns="http://www.w3.org/2000/svg" viewBox="0 0 1440 520" role="img" aria-labelledby="title desc">
  <title id="title">Superbuy spreadsheet research overview</title>
  <desc id="desc">A clean product research table showing categories, reference prices, link checks, QC review and shipping preparation.</desc>
  <rect width="1440" height="520" rx="24" fill="#f7f7f3"/>
  <rect x="48" y="44" width="1344" height="432" rx="18" fill="#ffffff" stroke="#d9d9d3"/>
  <rect x="48" y="44" width="1344" height="72" rx="18" fill="#171919"/>
  <circle cx="88" cy="80" r="8" fill="#2768e5"/>
  <circle cx="114" cy="80" r="8" fill="#f06449"/>
  <circle cx="140" cy="80" r="8" fill="#aad43a"/>
  <text x="184" y="88" fill="#ffffff" font-family="Arial, sans-serif" font-size="22" font-weight="700">PRODUCT RESEARCH INDEX</text>
  <text x="1182" y="87" fill="#c7cbc8" font-family="Arial, sans-serif" font-size="15">UPDATED 24 AUG 2026</text>
  <g font-family="Arial, sans-serif">
    <text x="80" y="157" fill="#69716d" font-size="14" font-weight="700">ITEM</text>
    <text x="520" y="157" fill="#69716d" font-size="14" font-weight="700">CATEGORY</text>
    <text x="760" y="157" fill="#69716d" font-size="14" font-weight="700">USD REF.</text>
    <text x="920" y="157" fill="#69716d" font-size="14" font-weight="700">LINK</text>
    <text x="1070" y="157" fill="#69716d" font-size="14" font-weight="700">QC</text>
    <text x="1210" y="157" fill="#69716d" font-size="14" font-weight="700">NEXT STEP</text>
    <g fill="none" stroke="#e1e3df"><path d="M80 174H1360"/><path d="M80 246H1360"/><path d="M80 318H1360"/><path d="M80 390H1360"/><path d="M80 462H1360"/></g>
    <g fill="#171919" font-size="18" font-weight="700">
      <text x="80" y="218">Running shoes</text><text x="80" y="290">Quilted jacket</text><text x="80" y="362">Hoodie set</text><text x="80" y="434">Football windbreaker</text>
    </g>
    <g fill="#4d5651" font-size="17">
      <text x="520" y="218">Shoes</text><text x="520" y="290">Jackets</text><text x="520" y="362">Hoodies</text><text x="520" y="434">Jersey</text>
      <text x="760" y="218">$50.70</text><text x="760" y="290">$58.90</text><text x="760" y="362">$28.00</text><text x="760" y="434">$23.70</text>
    </g>
    <g fill="#1d7f50" font-size="16" font-weight="700">
      <text x="920" y="218">CHECKED</text><text x="920" y="290">CHECKED</text><text x="920" y="362">CHECKED</text><text x="920" y="434">CHECKED</text>
    </g>
    <g fill="#2768e5" font-size="16" font-weight="700">
      <text x="1070" y="218">REVIEW</text><text x="1070" y="290">MEASURE</text><text x="1070" y="362">VERIFY SET</text><text x="1070" y="434">VERIFY SIZE</text>
    </g>
    <g fill="#171919" font-size="16">
      <text x="1210" y="218">Open listing</text><text x="1210" y="290">Compare option</text><text x="1210" y="362">Check photos</text><text x="1210" y="434">Plan parcel</text>
    </g>
  </g>
</svg>
